<svg id="visual" viewBox="0 0 960 300" width="960" height="300" xmlns="http://www.w3.org/2000/svg" xmlns:xlink="http://www.w3.org/1999/xlink" version="1.1"><rect x="0" y="0" width="960" height="300" fill="#b9b9b9"></rect><path d="M0 199L26.7 197.7C53.3 196.3 106.7 193.7 160 190.8C213.3 188 266.7 185 320 189C373.3 193 426.7 204 480 202.8C533.3 201.7 586.7 188.3 640 187.5C693.3 186.7 746.7 198.3 800 198.3C853.3 198.3 906.7 186.7 933.3 180.8L960 175L960 0L933.3 0C906.7 0 853.3 0 800 0C746.7 0 693.3 0 640 0C586.7 0 533.3 0 480 0C426.7 0 373.3 0 320 0C266.7 0 213.3 0 160 0C106.7 0 53.3 0 26.7 0L0 0Z" fill="#404040"></path><path d="M0 149L26.7 148C53.3 147 106.7 145 160 143C213.3 141 266.7 139 320 135.3C373.3 131.7 426.7 126.3 480 122.8C533.3 119.3 586.7 117.7 640 122.7C693.3 127.7 746.7 139.3 800 145.2C853.3 151 906.7 151 933.3 151L960 151L960 0L933.3 0C906.7 0 853.3 0 800 0C746.7 0 693.3 0 640 0C586.7 0 533.3 0 480 0C426.7 0 373.3 0 320 0C266.7 0 213.3 0 160 0C106.7 0 53.3 0 26.7 0L0 0Z" fill="#373737"></path><path d="M0 60L26.7 62.2C53.3 64.3 106.7 68.7 160 72C213.3 75.3 266.7 77.7 320 79.5C373.3 81.3 426.7 82.7 480 83.5C533.3 84.3 586.7 84.7 640 83.7C693.3 82.7 746.7 80.3 800 77.3C853.3 74.3 906.7 70.7 933.3 68.8L960 67L960 0L933.3 0C906.7 0 853.3 0 800 0C746.7 0 693.3 0 640 0C586.7 0 533.3 0 480 0C426.7 0 373.3 0 320 0C266.7 0 213.3 0 160 0C106.7 0 53.3 0 26.7 0L0 0Z" fill="#2e2e2e"></path></svg>